<svg width="394" height="270" viewBox="0 0 394 270" fill="none" xmlns="http://www.w3.org/2000/svg">
<path fill-rule="evenodd" clip-rule="evenodd" d="M10.8798 0C5.35691 0 0.879761 4.47718 0.879761 10V266.08C0.879761 268.956 3.85956 270.859 6.44507 269.6V269.6C21.344 262.416 34.8918 254.687 48.4329 246.962C68.008 235.795 87.5692 224.635 111.178 215.142C151.119 199.082 208.297 188.376 258.562 196.746C296.129 203.015 320.582 218.023 345.023 233.024C356.153 239.855 367.279 246.684 379.641 252.686C385.998 255.772 393.12 250.971 393.12 243.905V10C393.12 4.47715 388.643 0 383.12 0H10.8798Z" fill="white"/>
</svg>
