<svg width="427" height="302" viewBox="0 0 427 302" fill="none" xmlns="http://www.w3.org/2000/svg">
<path fill-rule="evenodd" clip-rule="evenodd" d="M10 0C4.47715 0 0 4.47713 0 9.99998V297.766C0 300.895 3.25943 302.953 6.05847 301.553V301.553C22.2778 293.517 37.0261 284.872 51.7672 276.232C73.077 263.741 94.3716 251.259 120.073 240.64C163.553 222.677 225.798 210.702 280.517 220.064C321.414 227.076 348.034 243.863 374.641 260.642C387.086 268.49 399.528 276.336 413.427 283.179C419.803 286.318 427 281.515 427 274.409V10C427 4.47715 422.523 0 417 0H10Z" fill="#C4C4C4"/>
</svg>
