<svg width="393" height="273" viewBox="0 0 393 273" fill="none" xmlns="http://www.w3.org/2000/svg">
<path fill-rule="evenodd" clip-rule="evenodd" d="M10.7595 0C5.23667 0 0.759521 4.47713 0.759521 9.99998V259.792C0.759521 264.449 3.96937 268.516 8.54659 269.373C10.2107 269.685 11.901 269.979 13.6185 270.255C52.2044 276.405 95.4618 271.426 132.039 263.177C182.889 251.717 225.39 234.635 267.928 217.537C287.174 209.802 306.426 202.064 326.463 194.842C345.023 187.718 364.299 182.868 383.905 180.381C389.043 179.73 393 175.43 393 170.251V10C393 4.47715 388.523 0 383 0H10.7595Z" fill="white"/>
</svg>
