<svg width="427" height="305" viewBox="0 0 427 305" fill="none" xmlns="http://www.w3.org/2000/svg">
<path fill-rule="evenodd" clip-rule="evenodd" d="M10 0C4.47715 0 0 4.47714 0 9.99999V291.224C0 295.859 3.18095 299.912 7.72969 300.803C9.78211 301.205 11.871 301.582 13.9985 301.933C56.0038 308.804 103.094 303.242 142.913 294.026C198.269 281.222 244.537 262.138 290.845 243.036C311.796 234.394 332.754 225.749 354.567 217.68C375.033 209.618 396.299 204.164 417.927 201.419C423.056 200.768 427 196.471 427 191.301V10C427 4.47715 422.523 0 417 0H10Z" fill="#C4C4C4"/>
</svg>
