<svg width="394" height="309" viewBox="0 0 394 309" fill="none" xmlns="http://www.w3.org/2000/svg">
<path fill-rule="evenodd" clip-rule="evenodd" d="M0.879761 85.5442C0.879761 81.8178 3.04929 78.4424 6.39835 76.8085V76.8085C21.3256 69.5813 34.9043 61.7963 48.4771 54.0147C68.0352 42.8016 87.581 31.5955 111.132 22.0755C151.025 5.94876 208.25 -4.80237 258.515 3.60307C296.108 9.89838 320.574 24.9706 345.017 40.0287C358.277 48.1981 371.531 56.3633 386.871 63.1207C390.616 64.7703 393.12 68.4284 393.12 72.5206V298.671C393.12 304.194 388.643 308.671 383.12 308.671H10.8798C5.35692 308.671 0.879761 304.194 0.879761 298.671L0.879761 85.5442Z" fill="white"/>
</svg>
