<svg width="427" height="343" viewBox="0 0 427 343" fill="none" xmlns="http://www.w3.org/2000/svg">
<path fill-rule="evenodd" clip-rule="evenodd" d="M0 94.0385C0 90.1752 2.23137 86.6694 5.68994 84.9479C5.79585 84.8952 5.90173 84.8424 6.0076 84.7896C22.2576 76.741 37.0397 68.0714 51.8153 59.4056C73.1066 46.9182 94.3845 34.4388 120.022 23.8369C163.451 5.87762 225.747 -6.09523 280.466 3.26537C321.391 10.2761 348.025 27.061 374.633 43.8302C389.249 53.041 403.856 62.247 420.821 69.826C424.531 71.4835 427 75.1235 427 79.1869V332.999C427 338.522 422.523 342.999 417 342.999H10C4.47715 342.999 0 338.522 0 332.999V94.0385Z" fill="#C4C4C4"/>
</svg>
