<svg width="393" height="323" viewBox="0 0 393 323" fill="none" xmlns="http://www.w3.org/2000/svg">
<path fill-rule="evenodd" clip-rule="evenodd" d="M13.086 90.4487C6.74102 89.417 0.759521 94.1704 0.759521 100.599V312.478C0.759521 318.001 5.23668 322.478 10.7595 322.478H383C388.523 322.478 393 318.001 393 312.478V7.74415C393 6.16906 392.636 4.67903 391.987 3.35364C390.803 0.933511 387.891 0.208253 385.216 0.528766C365.146 2.93322 345.408 7.81367 326.417 15.0754C306.608 22.249 287.565 29.9181 268.539 37.5808C225.781 54.8011 183.104 71.9886 131.992 83.4459C95.415 91.6503 52.1578 96.6804 13.5719 90.5271C13.4097 90.5011 13.2478 90.475 13.086 90.4487Z" fill="white"/>
</svg>
