<svg width="427" height="359" viewBox="0 0 427 359" fill="none" xmlns="http://www.w3.org/2000/svg">
<path fill-rule="evenodd" clip-rule="evenodd" d="M12.3754 100.208C6.01851 99.1172 0 103.875 0 110.325V349C0 354.522 4.47715 359 10 359H417C422.523 359 427 354.522 427 349V7.05726C427 5.66244 426.714 4.33432 426.199 3.12817C425.095 0.548798 422.055 -0.262496 419.269 0.0710705C397.165 2.71813 375.425 8.18901 354.516 16.3746C332.952 24.3701 312.222 32.9179 291.51 41.4585C244.962 60.652 198.503 79.809 142.862 92.579C103.044 101.724 55.953 107.33 13.9477 100.472C13.4212 100.385 12.8971 100.297 12.3754 100.208Z" fill="#C4C4C4"/>
</svg>
