<svg width="1440" height="911" viewBox="0 0 1440 911" fill="none" xmlns="http://www.w3.org/2000/svg">
<mask id="mask0" mask-type="alpha" maskUnits="userSpaceOnUse" x="0" y="0" width="1440" height="911">
<rect width="1440" height="911" fill="#261E16"/>
</mask>
<g mask="url(#mask0)">
<g opacity="0.01">
<path fill-rule="evenodd" clip-rule="evenodd" d="M680.493 302.366C683.468 308.534 686.483 314.782 690.469 320.214C691.397 321.528 692.97 322.284 694.631 322.045C697.044 321.698 698.729 319.379 698.395 316.867C657.132 43.5351 -50.6782 -129.157 -172.236 309.274C-197.559 400.605 -222.139 395.529 -218.672 506.661C-218.437 514.197 -218.207 521.544 -218.119 528.352C-214.728 789.506 -168.528 950.08 100.65 1006.66C184.488 1024.29 333.597 1047.71 416.502 1004.25C438.649 992.641 459.704 987.27 483.646 981.617C506.698 976.174 529.282 970.842 551.406 958.146C565.341 950.152 578.318 941.323 589.771 931.614C600.426 922.581 609.749 912.791 617.284 902.205C635.446 876.693 643.38 843.586 645.212 823.259C675.724 754.596 799.014 612.536 760.684 428.707C751.35 383.93 690.865 284.237 687.224 406.334C686.273 438.222 684.326 427.351 672.721 454.932C672.577 445.257 689.49 309.786 668.854 351.819C647.34 395.464 640.193 399.717 624.081 398.983C590.237 397.443 542.784 351.05 421.642 441.138C416.648 444.851 411.954 450.009 407.368 455.047C405.543 457.052 403.736 459.037 402.022 460.81C394.552 468.541 379.452 482.507 365.132 493.811C334.048 510.549 307.232 478.925 286.588 448.274C280.869 439.786 270.754 424.186 262.721 408.731C246.234 377.008 263.55 341.6 298.985 355.859C307.892 384.215 360.408 458.907 385.161 456.729V456.727L385.317 456.711C405.753 454.198 366.152 441.067 378.703 419.341C391.493 397.2 385.644 395.058 364.706 405.483C350.36 412.625 335.653 387.204 330.813 374.991C326.068 363.015 287.479 285.33 296.079 214.624C353.45 243.541 395.963 296.856 391.133 365.303C390.724 371.095 390.333 376.636 390.337 382.252C390.203 383.926 390.958 385.614 392.427 386.553C394.506 387.883 397.228 387.208 398.507 385.043C445.493 305.525 359.88 239.029 308.005 199.431C305.687 197.78 303.499 196.222 301.606 193.509C297.994 188.331 299.038 184.617 299.999 181.202C301.4 176.221 302.695 171.613 298.235 165.395L298.23 165.397C297.857 164.875 297.37 164.428 296.783 164.1C294.637 162.899 291.962 163.735 290.808 165.97C273.581 199.318 276.452 278.564 287.178 312.686C288.511 316.929 289.813 321.071 290.896 326.562C276.082 321.061 191.343 346.544 205.383 273.647C220.694 194.15 109.34 259.332 153.915 266.17C197.126 237.111 176.969 295.429 193.738 318.241C237.659 377.989 239.394 452.997 200.107 398.933C192.371 383.367 178.407 389.551 175.768 372.133C175.675 371.518 195.46 272.936 156.638 272.623C130.093 272.407 161.24 298.77 166.81 316.241C169.753 376.222 133.924 319.794 101.936 314.42C87.1727 311.94 85.4779 314.52 94.6518 324.409C407.851 662.004 28.785 442.018 -100.032 611.36C-142.931 667.759 -132.483 693.613 -158.952 759.732C-182.127 684.071 -199.028 519.353 -190.834 441.354C-186.662 401.617 -157.075 363.992 -146.547 318.254C-142.85 302.188 -139.248 286.539 -127.832 266.063C26.2939 -10.3424 541.706 14.6708 680.496 302.369L680.493 302.366ZM272.673 462.855C289.296 485.06 298.993 498.777 279.691 500.603C260.389 502.429 241.672 509.127 242.258 494.515C242.467 489.28 236.949 471.507 233.521 459.701C219.11 410.079 256.05 440.651 272.673 462.855V462.855ZM623.989 430.513C634.533 432.185 642.828 433.501 650.511 431.199C644.976 451.938 647.372 477.108 650.657 492.297C653.449 505.207 665.763 521.665 681.273 518.122C686.893 517.138 693.177 465.068 694.055 463.862C698.143 458.242 707.176 461.39 709.652 454.673C713.762 443.515 706.729 427.871 705.513 418.667C704.812 413.367 704.099 407.972 704.596 402.122C707.284 352.635 725.715 418.07 731.91 434.673C747.589 531.283 729.026 654.713 655.429 728.819C644.09 740.234 615.844 804.782 611.967 826.251C606.903 854.294 601.013 886.91 575.27 909.357C518.845 958.563 498.288 940.613 442.106 961.534C429.342 966.288 416.92 971.564 404.411 976.877C252.796 1041.27 -101.335 951.203 -148.539 787.883C-149.796 783.534 -147.755 773.491 -144.505 762.32C-79.7829 539.842 32.2011 591.413 196.637 552.246C208.978 549.306 223.649 545.812 245.37 543.156C258.974 541.493 272.736 539.675 286.602 537.746C300.56 535.804 313.826 533.86 326.629 531.918C435.865 515.356 446.793 394.65 623.989 430.514V430.513ZM317.332 663.34C313.715 661.616 308.545 659.152 298.254 652.137C297.836 637.133 300.002 621.628 302.232 605.661C303.209 598.671 308.575 566.771 303.346 562.662C289.347 551.663 286.061 621.236 282.534 646.78C277.714 646.98 272.271 645.331 268.085 642.919C267.988 621.241 269.232 583.633 268.088 563.653L268.078 563.653C268.009 562.433 267.474 561.243 266.499 560.399C264.63 558.781 261.853 559.047 260.299 560.992C252.357 570.94 250.3 623.433 249.198 639.961C214.723 645.131 2.14832 598.771 6.04374 638.414C6.76559 645.76 17.7317 641.079 21.5887 639.784C39.6443 633.725 190.36 660.624 250.241 658.296C257.893 672.085 249.391 683.517 248.747 698.182C248.078 713.429 250.498 738.721 258.134 751.163C261.011 755.851 270.223 754.613 275.608 754.711C276.7 754.73 277.795 754.632 278.887 754.407L278.885 754.395C280.873 753.993 282.395 752.196 282.444 750.001C282.597 743.97 268.595 732.874 267.35 724.357C266.045 715.436 270.945 664.997 270.938 664.973C295.546 666.61 265.69 727.132 299.457 743.406L299.458 743.404C314.918 744.87 295.993 726.095 294.715 708.866C288.877 630.181 371.477 739.772 376.255 766.642C377.399 774.534 378.933 785.116 385.244 803.494C388.944 814.267 391.866 842.454 394.049 863.506C395.136 873.99 396.044 882.74 396.817 887.043C398.25 895 398.415 897.348 398.941 904.818L399.152 907.799C399.626 914.415 399.855 917.609 402.159 920.225C404.449 922.823 407.114 923.139 412.268 923.751L413.757 923.93L413.758 923.922C415.667 924.15 417.567 923.049 418.334 921.108C418.806 919.915 419.194 918.758 419.508 917.633C419.909 918.058 420.398 918.408 420.961 918.651C422.671 919.391 424.136 920.143 425.487 920.837C431.123 923.733 435.183 925.818 443.471 923.437C454.239 921.361 444.154 890.589 441.99 884.506C440.381 879.981 438.804 875.549 437.854 871.526C435.617 862.052 435.709 855.422 435.794 849.259C437.584 720.173 369.849 753.42 429.188 522.623L429.183 522.621C429.533 521.257 429.275 519.745 428.36 518.559C426.834 516.584 424.058 516.27 422.159 517.859C394.711 540.906 395.743 601.337 386.91 642.343C378.38 708.496 381.997 718.375 317.33 663.338L317.332 663.34ZM29.4701 902.099C26.4042 896.792 23.1101 891.09 22.2849 883.187C21.7143 877.726 21.4025 872.464 21.0975 867.323C20.4816 856.929 19.8947 847.011 17.3345 836.572C11.9988 814.814 7.37553 805.408 3.60568 797.735C-29.5122 730.339 23.7944 768.487 25.0698 681.958C27.7163 631.092 2.29609 659.727 6.49819 676.89C8.11103 780.562 -62.6097 720.966 -6.66253 829.997C-4.64733 833.923 -2.75343 837.615 -1.27215 840.966C5.4654 856.215 -1.23883 868.992 0.198031 886.084C6.96889 966.621 42.2592 924.237 29.4709 902.098L29.4701 902.099Z" fill="white"/>
</g>
</g>
</svg>
