<svg width="36" height="36" viewBox="0 0 36 36" fill="none" xmlns="http://www.w3.org/2000/svg">
<path d="M27.1165 8.91682C26.817 8.05176 26.4843 7.21996 26.085 6.42144C24.0887 2.36229 21.1275 0 18 0C12.1774 0 7.45287 8.08503 7.45287 18C7.45287 20.7948 7.81885 23.4566 8.51756 25.8854C3.99261 24.1885 1.03142 21.2939 1.03142 18C1.03142 15.1054 3.36044 12.4104 7.45287 10.5804C7.71904 10.4806 7.81885 10.1479 7.71904 9.91497C7.61922 9.6488 7.28651 9.54898 7.05361 9.6488C2.56192 11.6451 0 14.6728 0 18C0 21.8595 3.59335 25.2532 8.91682 27.0832C9.34935 28.3475 9.8817 29.5453 10.4806 30.61C12.4769 34.0702 15.1386 36 18 36C21.3272 36 24.3882 33.4381 26.3845 28.9131C26.4843 28.647 26.3845 28.3475 26.1183 28.2477C25.8521 28.1479 25.5527 28.2477 25.4529 28.5139C23.6229 32.6063 20.8946 34.9686 18 34.9686C15.5046 34.9686 13.1423 33.2384 11.3457 30.1109C10.8799 29.3124 10.4806 28.414 10.1146 27.4824C12.5102 28.1479 15.1719 28.5471 18 28.5471C27.915 28.5471 36 23.8226 36 18C36 14.1405 32.4067 10.7468 27.1165 8.91682ZM18 27.5157C15.0055 27.5157 12.1775 27.0832 9.71534 26.3179C8.91682 23.8226 8.48429 20.9612 8.48429 18.0333C8.48429 8.68392 12.7431 1.0647 18 1.0647C20.7283 1.0647 23.3567 3.19409 25.1534 6.92052C25.4196 7.45287 25.6192 7.98521 25.8521 8.55083C23.4898 7.8854 20.7948 7.48614 18 7.48614C15.5379 7.48614 13.1423 7.78558 10.9131 8.31793C10.647 8.38447 10.4806 8.65065 10.5471 8.95009C10.6137 9.21627 10.8799 9.38263 11.1793 9.31608C13.342 8.78373 15.6377 8.51756 18.0333 8.51756C21.0277 8.51756 23.8558 8.95009 26.3179 9.71534C26.5508 10.414 26.7505 11.1793 26.9168 11.9445C27.3494 13.8743 27.549 15.9372 27.549 18.0333C27.549 20.3956 27.2828 22.658 26.7505 24.8207C26.6839 25.0869 26.8503 25.3863 27.1165 25.4529C27.3826 25.5194 27.6821 25.3531 27.7486 25.0869C28.281 22.8577 28.5804 20.4954 28.5804 18.0665C28.5804 15.9039 28.3475 13.7745 27.915 11.7782C27.7819 11.2458 27.6488 10.7135 27.5157 10.1811C32.0074 11.8115 34.9686 14.7061 34.9686 18C34.9686 23.2569 27.3494 27.5157 18 27.5157Z" fill="white"/>
<path d="M12.843 18.8984C13.5418 18.6322 13.8745 18.1664 13.8745 17.6008C13.8745 16.8355 13.209 16.2033 12.0112 16.2033C11.2793 16.2033 10.6138 16.403 10.2811 16.6359L10.5473 17.5675C10.7802 17.4344 11.246 17.2348 11.7118 17.2348C12.2442 17.2348 12.5436 17.4677 12.5436 17.8004C12.5436 18.2662 11.978 18.4326 11.5454 18.4326H11.0464V19.3642H11.5787C12.1443 19.3642 12.71 19.5971 12.71 20.1627C12.71 20.5952 12.3772 20.8947 11.6785 20.8947C11.1462 20.8947 10.6138 20.6618 10.3809 20.562L10.1147 21.5268C10.4475 21.7265 11.0464 21.9261 11.7783 21.9261C13.1758 21.9261 14.0408 21.1941 14.0408 20.2292C14.0741 19.5305 13.5085 19.0314 12.843 18.8984Z" fill="white"/>
<path d="M17.3681 18.1331C16.8357 18.1331 16.4697 18.2995 16.2036 18.5656H16.1703C16.3034 17.9002 16.8357 17.3346 18.0002 17.2348C18.1999 17.2015 18.3662 17.2015 18.4993 17.2015V16.2033C18.3662 16.2033 18.2331 16.2033 17.967 16.2033C17.1019 16.2366 16.3699 16.5361 15.8043 17.0351C15.2054 17.6008 14.8062 18.4658 14.8062 19.4973C14.8062 20.8281 15.5381 21.9261 17.0021 21.9261C18.1999 21.9261 19.0649 21.0278 19.0649 19.9298C19.0649 18.7985 18.2997 18.1331 17.3681 18.1331ZM17.0021 20.9945C16.4032 20.9945 16.137 20.4621 16.1038 19.8632C16.1038 19.6969 16.137 19.5971 16.1703 19.5305C16.3034 19.2644 16.6028 19.0314 16.9355 19.0314C17.5012 19.0314 17.7673 19.464 17.7673 19.9963C17.7673 20.5952 17.4679 20.9945 17.0021 20.9945Z" fill="white"/>
<path d="M21.6934 16.2033C20.2627 16.2033 19.564 17.4677 19.564 19.098C19.564 20.6618 20.1961 21.9594 21.6268 21.9594C23.0575 21.9594 23.7562 20.7949 23.7562 19.0647C23.7562 17.5342 23.1906 16.2033 21.6934 16.2033ZM21.6934 20.9612C21.1943 20.9612 20.8948 20.3623 20.8948 19.0647C20.8948 17.7671 21.2276 17.1682 21.6934 17.1682C22.2257 17.1682 22.4919 17.8337 22.4919 19.0647C22.4586 20.329 22.1924 20.9612 21.6934 20.9612Z" fill="white"/>
<path d="M24.7874 12.8097C23.7559 12.8097 22.8909 13.6415 22.8909 14.7062C22.8909 15.7376 23.7227 16.6026 24.7874 16.6026C25.8188 16.6026 26.6838 15.7709 26.6838 14.7062C26.6838 13.6415 25.852 12.8097 24.7874 12.8097ZM24.7874 15.5379C24.3216 15.5379 23.9223 15.1387 23.9223 14.6729C23.9223 14.2071 24.3216 13.8078 24.7874 13.8078C25.2532 13.8078 25.6524 14.2071 25.6524 14.6729C25.6524 15.172 25.2864 15.5379 24.7874 15.5379Z" fill="white"/>
</svg>
