<svg width="16" height="69" viewBox="0 0 16 69" fill="none" xmlns="http://www.w3.org/2000/svg">
<path d="M15.8149 15.5389L1.14817 0.205435C0.892975 -0.0588796 0.471096 -0.0706297 0.205468 0.184623C-0.0601595 0.439188 -0.0692841 0.861067 0.184656 1.12732L14.41 15.9998L0.184593 30.8724C-0.069347 31.1387 -0.0602214 31.5606 0.205406 31.8151C0.334345 31.9388 0.500972 32 0.666348 32C0.842162 32 1.0166 31.931 1.1481 31.7942L15.8149 16.4608C16.0611 16.203 16.0611 15.7967 15.8149 15.5389Z" fill="#B79069"/>
<path d="M0.184596 53.4611L14.8514 68.7946C15.1066 69.0589 15.5284 69.0706 15.7941 68.8154C16.0597 68.5608 16.0688 68.1389 15.8149 67.8727L1.58955 53.0002L15.8149 38.1276C16.0689 37.8613 16.0598 37.4394 15.7941 37.1849C15.6652 37.0612 15.4986 37 15.3332 37C15.1574 37 14.9829 37.069 14.8514 37.2058L0.184596 52.5392C-0.061531 52.797 -0.061531 53.2033 0.184596 53.4611Z" fill="#B79069"/>
</svg>
