<svg width="31" height="12" viewBox="0 0 31 12" fill="none" xmlns="http://www.w3.org/2000/svg">
<path d="M30.8901 6.26513L25.2651 11.8901C25.1186 12.0366 24.8813 12.0366 24.7349 11.8901C24.5884 11.7436 24.5884 11.5063 24.7349 11.3599L29.7197 6.375H0.375011C0.16773 6.375 0 6.20726 0 5.99998C0 5.7927 0.16773 5.62497 0.375011 5.62497H29.7197L24.7349 0.640137C24.5884 0.493641 24.5884 0.256336 24.7349 0.109876C24.8081 0.0366449 24.9041 1.23978e-05 25 1.23978e-05C25.096 1.23978e-05 25.1919 0.0366449 25.2652 0.109876L30.8902 5.73487C31.0366 5.88133 31.0366 6.11864 30.8901 6.26513Z" fill="white"/>
</svg>
