<svg width="28" height="26" viewBox="0 0 28 26" fill="none" xmlns="http://www.w3.org/2000/svg">
<path d="M27.716 4.98491C28.0947 4.79362 28.0947 4.17193 27.716 3.98064C24.7815 2.35468 21.7996 0.872189 18.5811 0.0113859C18.1078 -0.0842588 17.6344 0.441788 17.9184 0.872189C18.5811 1.82864 19.3857 2.64162 20.3323 3.35895C13.7059 3.16766 6.8429 2.25904 0.311174 3.83717C-0.162139 3.93282 -0.0674783 4.74572 0.405912 4.6979C7.17429 3.83718 13.8953 4.50669 20.6637 4.60226C19.9538 5.41524 19.2438 6.22822 18.5338 6.99337C18.2025 7.32813 18.3918 8.04554 18.9598 7.99772C22.0836 7.61507 25.0181 6.56297 27.716 4.98491ZM22.0836 4.45887C22.5096 4.17193 22.4149 3.35895 21.7523 3.35895C21.7049 3.35895 21.6576 3.35895 21.6576 3.35895C21.0896 2.78508 20.5217 2.25904 19.9537 1.63735C22.1309 2.4025 24.1662 3.35895 26.2014 4.45879C24.3555 5.41524 22.4622 6.13257 20.427 6.51515C20.9003 5.9891 21.3736 5.41524 21.8943 4.88911C22.0836 4.79362 22.1309 4.60226 22.0836 4.45887Z" fill="black"/>
<path d="M27.716 22.9849C28.0947 22.7936 28.0947 22.1719 27.716 21.9806C24.7815 20.3547 21.7996 18.8722 18.5811 18.0114C18.1078 17.9157 17.6344 18.4418 17.9184 18.8722C18.5811 19.8286 19.3857 20.6416 20.3323 21.359C13.7059 21.1677 6.8429 20.259 0.311174 21.8372C-0.162139 21.9328 -0.0674783 22.7457 0.405912 22.6979C7.17429 21.8372 13.8953 22.5067 20.6637 22.6023C19.9538 23.4152 19.2438 24.2282 18.5338 24.9934C18.2025 25.3281 18.3918 26.0455 18.9598 25.9977C22.0836 25.6151 25.0181 24.563 27.716 22.9849ZM22.0836 22.4589C22.5096 22.1719 22.4149 21.359 21.7523 21.359C21.7049 21.359 21.6576 21.359 21.6576 21.359C21.0896 20.7851 20.5217 20.259 19.9537 19.6373C22.1309 20.4025 24.1662 21.359 26.2014 22.4588C24.3555 23.4152 22.4622 24.1326 20.427 24.5151C20.9003 23.9891 21.3736 23.4152 21.8943 22.8891C22.0836 22.7936 22.1309 22.6023 22.0836 22.4589Z" fill="#DBB589"/>
</svg>
