<svg width="182" height="8" viewBox="0 0 182 8" fill="none" xmlns="http://www.w3.org/2000/svg">
<path d="M62.4006 4.84932C57.7011 1.4074 49.8686 2.34611 43.9942 2.65901C41.2528 2.65901 41.2528 5.78802 43.9942 6.10093C46.7355 6.10093 49.4769 6.41332 52.2183 6.72673C54.9597 7.04014 58.0927 7.97834 60.8341 7.66543C62.4006 7.66543 63.9671 6.10093 62.4006 4.84932Z" fill="#B79069"/>
<path d="M104.695 4.22366C98.0374 1.09465 88.639 2.03336 81.5897 4.22366C78.8483 5.16236 80.0232 8.29138 82.7646 7.66507C89.8139 6.41347 96.4715 7.66507 103.521 7.97797C106.262 8.29189 107.045 5.16236 104.695 4.22366Z" fill="#B79069"/>
<path d="M24.6657 4.22366C18.008 1.09465 8.60959 2.03336 1.5603 4.22366C-1.18108 5.16236 -0.00620491 8.29138 2.73518 7.66507C9.78447 6.41347 16.4421 7.66507 23.4914 7.97797C26.2328 8.29189 27.0154 5.16236 24.6657 4.22366Z" fill="#B79069"/>
<path d="M144.25 2.65929C137.984 1.09477 130.934 2.03348 124.668 2.34639C121.535 2.34639 121.535 6.10175 124.668 6.10175C130.934 6.41414 138.375 7.35285 144.25 5.78884C146.599 5.47543 146.599 3.2851 144.25 2.65929Z" fill="#B79069"/>
<path d="M181.455 1.40769C178.713 -0.782137 175.188 0.156581 171.663 0.468976C167.748 0.781882 163.831 1.40769 159.915 2.34641C157.173 3.28513 157.956 6.72709 161.09 6.10179C165.006 5.16307 168.923 4.85017 172.838 4.85017C175.971 4.85017 178.713 5.47598 181.062 3.59855C182.237 3.28513 182.237 2.0335 181.455 1.40769Z" fill="#B79069"/>
</svg>
