<svg width="64" height="64" viewBox="0 0 64 64" fill="none" xmlns="http://www.w3.org/2000/svg">
<g clip-path="url(#clip0)">
<path d="M63.4322 30.6288L54.2719 21.4686C53.5145 20.711 52.2863 20.711 51.529 21.4686C50.7716 22.226 50.7716 23.4542 51.529 24.2114L57.3782 30.0605H33.9396V6.62207L39.7887 12.4712C40.1673 12.8499 40.6637 13.0393 41.1601 13.0393C42.8723 13.0393 43.7571 10.9537 42.5315 9.72824L33.3714 0.567917C32.6143 -0.189181 31.3859 -0.189431 30.6285 0.567917L21.4683 9.72824C20.7109 10.4857 20.7109 11.7137 21.4683 12.4711C22.2257 13.2287 23.4539 13.2287 24.2112 12.4711L30.0603 6.62194V30.0605H6.62194L12.4711 24.2114C13.2285 23.4541 13.2285 22.2259 12.4711 21.4686C11.714 20.7111 10.4857 20.7108 9.72824 21.4686L0.567917 30.6288C-0.189181 31.3859 -0.189431 32.6143 0.567917 33.3716L9.72824 42.5318C10.4853 43.2891 11.7137 43.2894 12.4711 42.5318C13.2285 41.7743 13.2285 40.5462 12.4711 39.789L6.62194 33.9398H30.0605V57.3784L24.2114 51.5293C23.4542 50.7718 22.2259 50.7717 21.4686 51.5293C20.7111 52.2868 20.7111 53.5148 21.4686 54.2721L30.6288 63.4325C31.3859 64.1896 32.6143 64.1898 33.3716 63.4325L42.5318 54.2721C43.2893 53.5147 43.2893 52.2866 42.5318 51.5293C41.7745 50.7717 40.5462 50.7717 39.789 51.5293L33.9398 57.3784V33.9397H57.3784L51.5293 39.7888C50.7718 40.5462 50.7718 41.7743 51.5293 42.5317C52.2865 43.2891 53.5149 43.2893 54.2721 42.5317L63.4325 33.3715C64.1893 32.6146 64.1896 31.3861 63.4322 30.6288Z" fill="white"/>
</g>
<defs>
<clipPath id="clip0">
<rect width="64" height="64" fill="white"/>
</clipPath>
</defs>
</svg>
