<svg width="20" height="80" viewBox="0 0 20 80" fill="none" xmlns="http://www.w3.org/2000/svg">
<g clip-path="url(#clip0)">
<path d="M19.7556 18.5774L14.0682 12.89C15.1699 11.5292 15.8332 9.8 15.8332 7.91669C15.8332 3.55174 12.2815 9.15527e-05 7.91656 9.15527e-05C3.55161 9.15527e-05 0 3.5517 0 7.91666C0 12.2816 3.55164 15.8333 7.9166 15.8333C9.7999 15.8333 11.5291 15.1699 12.8899 14.0683L18.5773 19.7557C18.7398 19.9182 18.9531 19.9999 19.1665 19.9999C19.3798 19.9999 19.5932 19.9182 19.7557 19.7557C20.0815 19.4299 20.0815 18.9032 19.7556 18.5774ZM7.9166 14.1666C4.46996 14.1666 1.66666 11.3633 1.66666 7.91666C1.66666 4.47001 4.46996 1.66672 7.9166 1.66672C11.3632 1.66672 14.1665 4.47001 14.1665 7.91666C14.1665 11.3633 11.3632 14.1666 7.9166 14.1666Z" fill="white"/>
</g>
<g clip-path="url(#clip1)">
<path d="M19.7556 48.5774L14.0682 42.89C15.1699 41.5292 15.8332 39.8 15.8332 37.9167C15.8332 33.5517 12.2815 30.0001 7.91656 30.0001C3.55161 30.0001 0 33.5517 0 37.9167C0 42.2816 3.55164 45.8333 7.9166 45.8333C9.7999 45.8333 11.5291 45.1699 12.8899 44.0683L18.5773 49.7557C18.7398 49.9182 18.9531 49.9999 19.1665 49.9999C19.3798 49.9999 19.5932 49.9182 19.7557 49.7557C20.0815 49.4299 20.0815 48.9032 19.7556 48.5774ZM7.9166 44.1666C4.46996 44.1666 1.66666 41.3633 1.66666 37.9167C1.66666 34.47 4.46996 31.6667 7.9166 31.6667C11.3632 31.6667 14.1665 34.47 14.1665 37.9167C14.1665 41.3633 11.3632 44.1666 7.9166 44.1666Z" fill="#B79069"/>
</g>
<g clip-path="url(#clip2)">
<path d="M19.7556 78.5774L14.0682 72.89C15.1699 71.5292 15.8332 69.8 15.8332 67.9167C15.8332 63.5517 12.2815 60.0001 7.91656 60.0001C3.55161 60.0001 0 63.5517 0 67.9167C0 72.2816 3.55164 75.8333 7.9166 75.8333C9.7999 75.8333 11.5291 75.1699 12.8899 74.0683L18.5773 79.7557C18.7398 79.9182 18.9531 79.9999 19.1665 79.9999C19.3798 79.9999 19.5932 79.9182 19.7557 79.7557C20.0815 79.4299 20.0815 78.9032 19.7556 78.5774ZM7.9166 74.1666C4.46996 74.1666 1.66666 71.3633 1.66666 67.9167C1.66666 64.47 4.46996 61.6667 7.9166 61.6667C11.3632 61.6667 14.1665 64.47 14.1665 67.9167C14.1665 71.3633 11.3632 74.1666 7.9166 74.1666Z" fill="black"/>
</g>
<defs>
<clipPath id="clip0">
<rect width="20" height="20" fill="white"/>
</clipPath>
<clipPath id="clip1">
<rect y="30" width="20" height="20" fill="white"/>
</clipPath>
<clipPath id="clip2">
<rect y="60" width="20" height="20" fill="white"/>
</clipPath>
</defs>
</svg>
