<svg width="225" height="235" viewBox="0 0 225 235" fill="none" xmlns="http://www.w3.org/2000/svg">
<path fill-rule="evenodd" clip-rule="evenodd" d="M68.3505 19.7847C68.5766 20.2533 68.8057 20.7281 69.1086 21.1409C69.1791 21.2407 69.2986 21.2982 69.4248 21.28C69.6082 21.2536 69.7363 21.0775 69.7109 20.8866C66.5754 0.116651 12.7904 -13.0058 3.5535 20.3095C1.62928 27.2496 -0.23854 26.8639 0.0249435 35.3086C0.0427947 35.8812 0.0602564 36.4395 0.0669425 36.9569C0.324648 56.8014 3.83523 69.003 24.2895 73.3026C30.6602 74.6417 41.9906 76.4219 48.2904 73.1191C49.9733 72.2372 51.5733 71.829 53.3925 71.3995C55.1442 70.9859 56.8603 70.5807 58.5415 69.616C59.6004 69.0085 60.5865 68.3376 61.4568 67.5998C62.2664 66.9135 62.9748 66.1695 63.5474 65.3651C64.9275 63.4265 65.5304 60.9108 65.6696 59.3662C67.9882 54.1486 77.3567 43.3538 74.4441 29.3851C73.7348 25.9825 69.1387 18.4071 68.862 27.685C68.7898 30.108 68.6418 29.282 67.76 31.3778C67.749 30.6427 69.0342 20.3485 67.4661 23.5425C65.8313 26.859 65.2882 27.1821 64.0639 27.1264C61.4921 27.0094 57.8863 23.484 48.681 30.3296C48.3015 30.6118 47.9448 31.0037 47.5963 31.3865C47.4577 31.5389 47.3203 31.6898 47.1901 31.8245C46.6225 32.4119 45.475 33.4732 44.3869 34.3322C42.0249 35.604 39.9873 33.201 38.4185 30.8719C37.984 30.2269 37.2153 29.0415 36.605 27.8671C35.3521 25.4565 36.6679 22.7659 39.3606 23.8495C40.0374 26.0041 44.028 31.6798 45.9089 31.5144V31.5142L45.9207 31.513C47.4737 31.322 44.4645 30.3243 45.4182 28.6733C46.3901 26.9908 45.9456 26.8281 44.3546 27.6203C43.2644 28.163 42.1469 26.2313 41.7791 25.3033C41.4185 24.3932 38.4862 18.4901 39.1398 13.1174C43.4993 15.3147 46.7297 19.366 46.3627 24.5671C46.3316 25.0072 46.3019 25.4283 46.3022 25.855C46.292 25.9822 46.3494 26.1105 46.461 26.1819C46.619 26.2829 46.8258 26.2316 46.923 26.0671C50.4934 20.0247 43.9878 14.9718 40.046 11.9628C39.8698 11.8374 39.7036 11.719 39.5598 11.5129C39.2852 11.1194 39.3646 10.8372 39.4376 10.5777C39.544 10.1991 39.6424 9.849 39.3035 9.3765L39.3032 9.3767C39.2748 9.33704 39.2378 9.30305 39.1932 9.27812C39.0302 9.18683 38.8269 9.25042 38.7392 9.42022C37.4302 11.9542 37.6483 17.976 38.4634 20.5689C38.5647 20.8912 38.6636 21.206 38.7459 21.6233C37.6202 21.2052 31.1811 23.1416 32.248 17.6023C33.4114 11.5615 24.9498 16.5146 28.337 17.0342C31.6205 14.8261 30.0888 19.2575 31.3631 20.991C34.7005 25.5311 34.8324 31.2308 31.847 27.1225C31.2592 25.9398 30.1981 26.4096 29.9976 25.0861C29.9905 25.0393 31.4939 17.5484 28.5439 17.5246C26.5268 17.5082 28.8936 19.5114 29.3169 20.8389C29.5405 25.3968 26.8179 21.1089 24.3872 20.7006C23.2654 20.5122 23.1366 20.7082 23.8337 21.4596C47.6331 47.1128 18.8286 30.3965 9.04011 43.2644C5.78029 47.5501 6.57424 49.5146 4.5629 54.5389C2.80187 48.7896 1.51763 36.273 2.14027 30.346C2.45731 27.3265 4.70558 24.4675 5.50551 20.9919C5.78645 19.7712 6.06019 18.582 6.9277 17.0261C18.6394 -3.97739 57.8044 -2.07669 68.3508 19.7849L68.3505 19.7847ZM37.3611 31.9799C38.6243 33.6671 39.3612 34.7095 37.8945 34.8482C36.4277 34.987 35.0055 35.496 35.05 34.3856C35.0659 33.9878 34.6466 32.6373 34.3861 31.7402C33.291 27.9695 36.0981 30.2926 37.3611 31.9799V31.9799ZM64.0569 29.5222C64.8582 29.6493 65.4885 29.7493 66.0722 29.5744C65.6517 31.1503 65.8337 33.0629 66.0833 34.2171C66.2955 35.1981 67.2312 36.4487 68.4098 36.1795C68.8369 36.1047 69.3144 32.148 69.3811 32.0564C69.6917 31.6294 70.3781 31.8685 70.5662 31.3581C70.8785 30.5103 70.3442 29.3215 70.2517 28.6221C70.1985 28.2194 70.1443 27.8094 70.182 27.3649C70.3863 23.6045 71.7869 28.5767 72.2576 29.8384C73.449 37.1796 72.0385 46.5587 66.4459 52.1899C65.5843 53.0573 63.438 57.9622 63.1434 59.5936C62.7586 61.7245 62.311 64.2029 60.3549 65.9086C56.0673 69.6476 54.5052 68.2837 50.236 69.8734C49.2661 70.2346 48.3222 70.6355 47.3717 71.0392C35.8507 75.9326 8.94111 69.0883 5.3542 56.6781C5.25864 56.3476 5.41379 55.5845 5.66072 54.7356C10.5788 37.8299 19.0882 41.7487 31.5833 38.7725C32.5211 38.5491 33.636 38.2836 35.2865 38.0817C36.3202 37.9554 37.3659 37.8173 38.4196 37.6706C39.4802 37.5231 40.4883 37.3754 41.4612 37.2278C49.7618 35.9693 50.5922 26.7971 64.0569 29.5224V29.5222ZM40.7547 47.2143C40.4798 47.0833 40.087 46.896 39.305 46.363C39.2732 45.2228 39.4378 44.0446 39.6073 42.8314C39.6815 42.3002 40.0893 39.8762 39.6919 39.564C38.6282 38.7282 38.3785 44.0149 38.1105 45.956C37.7443 45.9712 37.3306 45.8458 37.0126 45.6626C37.0052 44.0153 37.0997 41.1575 37.0127 39.6393L37.012 39.6393C37.0068 39.5465 36.9661 39.4561 36.892 39.392C36.75 39.269 36.539 39.2892 36.4209 39.4371C35.8174 40.193 35.6611 44.1818 35.5774 45.4378C32.9577 45.8306 16.8046 42.3078 17.1006 45.3202C17.1554 45.8785 17.9887 45.5227 18.2818 45.4243C19.6538 44.9639 31.1063 47.0079 35.6566 46.831C36.2381 47.8788 35.5921 48.7475 35.5431 49.8618C35.4923 51.0204 35.6761 52.9423 36.2564 53.8877C36.475 54.244 37.175 54.1499 37.5842 54.1573C37.6672 54.1588 37.7504 54.1514 37.8334 54.1342L37.8332 54.1334C37.9842 54.1028 38.0999 53.9663 38.1037 53.7995C38.1152 53.3412 37.0513 52.498 36.9567 51.8508C36.8575 51.173 37.2299 47.3402 37.2293 47.3384C39.0993 47.4627 36.8305 52.0617 39.3964 53.2983L39.3965 53.2981C40.5713 53.4096 39.1332 51.9829 39.0361 50.6737C38.5925 44.6946 44.8691 53.0222 45.2321 55.064C45.3191 55.6636 45.4356 56.4678 45.9152 57.8643C46.1964 58.6829 46.4184 60.8248 46.5843 62.4245C46.6668 63.2211 46.7359 63.8861 46.7946 64.213C46.9035 64.8176 46.9161 64.9961 46.956 65.5636L46.972 65.7902C47.008 66.2929 47.0254 66.5356 47.2006 66.7344C47.3745 66.9318 47.5771 66.9559 47.9687 67.0024L48.0818 67.016L48.0819 67.0153C48.227 67.0326 48.3713 66.949 48.4296 66.8015C48.4655 66.7109 48.495 66.623 48.5188 66.5374C48.5493 66.5697 48.5865 66.5964 48.6292 66.6148C48.7592 66.671 48.8705 66.7282 48.9732 66.781C49.4015 67.001 49.71 67.1594 50.3397 66.9785C51.1579 66.8208 50.3916 64.4825 50.2272 64.0202C50.1049 63.6764 49.9851 63.3396 49.9129 63.0339C49.7429 62.314 49.7499 61.8101 49.7564 61.3419C49.8924 51.5329 44.7454 54.0593 49.2544 36.5215L49.254 36.5214C49.2806 36.4177 49.261 36.3028 49.1915 36.2127C49.0755 36.0626 48.8646 36.0387 48.7203 36.1595C46.6346 37.9108 46.713 42.5028 46.0418 45.6188C45.3936 50.6456 45.6685 51.3963 40.7545 47.2141L40.7547 47.2143ZM18.8807 65.3571C18.6477 64.9538 18.3974 64.5205 18.3347 63.92C18.2914 63.505 18.2677 63.1052 18.2445 62.7145C18.1977 61.9247 18.1531 61.1711 17.9585 60.3778C17.5531 58.7245 17.2018 58.0097 16.9153 57.4266C14.3988 52.3054 18.4494 55.2042 18.5463 48.629C18.7474 44.7638 16.8158 46.9398 17.1351 48.2439C17.2577 56.1218 11.8838 51.5932 16.1351 59.8782C16.2882 60.1765 16.4321 60.4571 16.5447 60.7117C17.0566 61.8704 16.5472 62.8413 16.6564 64.1401C17.1709 70.26 19.8525 67.0393 18.8808 65.357L18.8807 65.3571Z" fill="white"/>
<path fill-rule="evenodd" clip-rule="evenodd" d="M107.528 28.5332C106.797 28.2003 105.615 26.9581 104.845 26.3798C103.976 25.726 102.742 24.6308 101.279 24.7254C99.3406 26.9407 100.17 32.4653 100.212 35.8805C100.238 38.0728 100.04 46.1365 101.237 47.3142C102.876 47.196 102.436 45.3891 102.508 43.6448C102.706 38.8063 102.349 30.1425 102.558 27.6214C103.66 28.1408 106.928 31.0293 107.54 32.238C108.07 33.2829 107.571 33.7066 108.267 34.7012C109.662 34.6807 109.295 34.1065 109.489 32.9547C109.692 31.7485 110.063 31.5772 110.889 30.8089C112.035 29.7435 113.258 28.2667 114.648 27.6318C114.936 31.1712 113.639 45.5933 115.424 47.3319C116.495 47.2174 116.522 46.9522 116.595 45.77L116.815 36.1467C116.861 34.0148 117.204 28.8655 117.014 27.0596C116.661 23.689 114.962 24.4354 112.503 26.266C111.754 26.8237 110.276 28.2885 109.698 28.4984C109.42 24.3826 110.192 22.0073 108.191 22C107.343 23.6017 107.649 26.4563 107.528 28.5332V28.5332Z" fill="white"/>
<path fill-rule="evenodd" clip-rule="evenodd" d="M223.213 43.2069C223.349 46.5108 221.414 49.2238 218.216 49.2725C215.199 49.3184 209.928 46.5779 209.603 49.8002C210.784 51.2406 214.958 52.02 217.379 51.8802C220.45 51.7026 222.509 50.0813 223.619 47.975C224.969 45.4125 225.165 42.2701 224.896 39.0974L223.725 32.7717C223.41 31.5516 223.514 31.4675 222.434 31.3005C222.055 32.4542 224.823 43.1291 220.397 42.7851C217.652 42.5714 216.975 37.6095 217.674 34.5143C217.812 33.9063 217.955 33.6139 218.107 33.0549C218.195 32.7317 218.289 32.4829 218.263 32.137L217.947 31.2221C216.837 31.531 217.718 30.8142 216.988 31.9717C215.519 34.2977 214.808 39.2735 215.793 42.3206C217.394 47.2784 220.717 47.26 223.213 43.2068L223.213 43.2069Z" fill="white"/>
<path fill-rule="evenodd" clip-rule="evenodd" d="M138.206 46.7722C142.188 46.2509 135.474 40.5091 141.544 38.7089C147.258 37.0142 144.491 43.0956 144.764 46.588C145.372 47.4053 146.124 47.6212 146.614 48.3363C147.556 49.7129 146.424 50.0527 147.814 50.583C149.736 48.6702 146.942 46.6556 146.94 46.6534C145.806 45.2332 147.473 40.9511 147.218 35.6013C147.115 33.4391 147.057 31.3265 145.405 31.2452C144.092 32.7549 145.893 34.3012 144.915 35.9301C143.823 36.5422 140.678 36.8609 139.493 36.4369C138.641 34.1937 140.116 32.9854 139.315 31.2879C137.884 31.4754 137.748 32.6936 137.506 34.1068C137.017 36.9593 136.861 44.8298 138.206 46.7723V46.7722Z" fill="white"/>
<path fill-rule="evenodd" clip-rule="evenodd" d="M153.167 47.4341C154.361 46.361 153.808 42.1042 153.981 40.1605C155.969 40.1146 157.411 40.4735 157.108 38.0599C155.268 37.5746 155.179 38.5901 154.321 37.6419C152.321 35.2609 157.589 30.2684 159.235 34.6244C159.507 35.3447 159.649 36.3017 160.29 36.591C162.313 37.5037 162.128 32.8681 158.764 31.3727C151.623 28.1981 151.837 38.0712 152.1 42.3062C152.159 43.243 152.226 44.1811 152.287 45.1166C152.379 46.5273 152.139 47.017 153.167 47.434L153.167 47.4341Z" fill="white"/>
<path fill-rule="evenodd" clip-rule="evenodd" d="M131.543 42.3357C131.543 42.3356 131.543 42.3356 131.543 42.3356H131.543C131.543 42.3356 131.543 42.3356 131.543 42.3357ZM132.032 44.2969C131.953 43.7079 131.864 43.0467 131.543 42.3357C131.291 44.8241 130.778 46.1428 128.953 47.0262C126.813 48.0616 125.094 47.0635 124.043 45.7277C121.804 42.881 121.673 38.2916 123.335 34.6933C127.737 25.1636 135.969 42.1743 133.091 46.3961C132.249 45.912 132.152 45.1867 132.032 44.2969ZM124.026 40.9701C123.882 38.3478 124.465 35.6728 126.184 34.8056C129.827 32.9681 132.317 43.3271 128.067 44.7843C125.257 45.7479 124.16 43.402 124.026 40.9701Z" fill="white"/>
<path fill-rule="evenodd" clip-rule="evenodd" d="M210.877 45.6139L210.05 42.1184L210.05 42.1184C209.908 44.5879 209.33 46.071 207.614 46.95C202.762 49.4357 198.752 41.5983 201.843 34.7701C205.87 25.8752 213.513 39.2239 211.856 46.4327C211.313 46.2764 211.234 46.4118 211.2 46.4013C211.169 46.3914 211.178 46.2516 210.877 45.6139ZM204.801 34.7234C201.606 36.2381 201.393 46.8583 206.733 44.7416C210.936 43.0757 208.175 33.1239 204.801 34.7234Z" fill="white"/>
<path fill-rule="evenodd" clip-rule="evenodd" d="M190.98 33.1732C191 35.7796 190.709 44.1848 191.052 46.8185C191.208 48.0085 191.068 47.7129 192.067 47.9096C193.096 45.7884 192.471 36.2865 192.453 33.128C195.454 33.6209 196.048 35.1186 197.103 35.0361C199.707 34.8327 194.334 30.8488 191.707 30.7236C189.415 30.6142 187.069 32.8599 186.383 34.342C185.958 35.2605 186.289 36.3399 187.981 34.8331C188.764 34.1356 189.657 33.4328 190.98 33.1732H190.98Z" fill="white"/>
<path fill-rule="evenodd" clip-rule="evenodd" d="M184.265 47.7091C184.451 44.7511 178.534 43.8908 180.403 38.4841C181.763 34.552 184.213 33.4072 184.404 32.5422C185.063 29.5538 177.044 34.939 178.18 40.8455C178.719 43.6467 181.691 48.5482 184.265 47.7091H184.265Z" fill="white"/>
<path fill-rule="evenodd" clip-rule="evenodd" d="M173.792 47.0853C175.038 47.0376 174.963 46.6449 175.384 43.9474C175.796 41.3119 176.179 31.3923 173.592 31.1748C172.873 32.2836 173.732 36.9732 173.765 38.8243C173.8 40.7472 173.263 45.8687 173.792 47.0853H173.792Z" fill="white"/>
<path fill-rule="evenodd" clip-rule="evenodd" d="M166.863 34.3855C166.731 35.0953 166.6 35.7999 166.604 36.4158C167.287 37.1043 168.194 37.6639 169.102 38.2244C170.605 39.1517 172.111 40.0813 172.616 41.6009C173.778 45.0932 170.867 47.9712 167.651 47.6434C164.54 47.326 164.374 42.6237 164.477 39.623C164.536 37.9005 164.763 36.2226 165.108 34.6728C165.165 34.4148 165.217 34.1636 165.267 33.922C165.6 32.3201 165.844 31.1417 166.933 31.2286C167.298 32.0504 167.079 33.2248 166.863 34.3855ZM170.448 44.587C168.427 47.1846 165.668 43.7366 166.432 38.4456H166.432C167.035 38.6495 169.37 40.4086 169.752 40.7147C170.805 41.5598 171.618 43.085 170.448 44.587Z" fill="white"/>
<path fill-rule="evenodd" clip-rule="evenodd" d="M203.619 27.6065C202.685 27.9211 201.861 28.0928 201.501 28.8462C201.137 29.6094 201.299 30.7577 202.344 30.6682C203.939 30.5313 203.215 28.4674 206.968 30.266C212.505 32.9202 207.598 26.2666 203.619 27.6065V27.6065Z" fill="white"/>
<path fill-rule="evenodd" clip-rule="evenodd" d="M131.407 30.7031C131.718 28.2693 125.064 25.8725 123.576 28.8349C123.184 29.6155 123.277 30.7967 124.429 30.6607C125.39 30.5472 125.361 29.7571 126.483 29.5722C128.322 29.269 129.21 31.1214 131.407 30.7031H131.407Z" fill="white"/>
<path fill-rule="evenodd" clip-rule="evenodd" d="M68.3505 99.7847C68.5766 100.253 68.8057 100.728 69.1086 101.141C69.1791 101.241 69.2986 101.298 69.4248 101.28C69.6082 101.254 69.7363 101.077 69.7109 100.887C66.5754 80.1167 12.7904 66.9942 3.5535 100.31C1.62928 107.25 -0.23854 106.864 0.0249435 115.309C0.0427947 115.881 0.0602564 116.439 0.0669425 116.957C0.324648 136.801 3.83523 149.003 24.2895 153.303C30.6602 154.642 41.9906 156.422 48.2904 153.119C49.9733 152.237 51.5733 151.829 53.3925 151.399C55.1442 150.986 56.8603 150.581 58.5415 149.616C59.6004 149.008 60.5865 148.338 61.4568 147.6C62.2664 146.913 62.9748 146.17 63.5474 145.365C64.9275 143.427 65.5304 140.911 65.6696 139.366C67.9882 134.149 77.3567 123.354 74.4441 109.385C73.7348 105.983 69.1387 98.4071 68.862 107.685C68.7898 110.108 68.6418 109.282 67.76 111.378C67.749 110.643 69.0342 100.348 67.4661 103.542C65.8313 106.859 65.2882 107.182 64.0639 107.126C61.4921 107.009 57.8863 103.484 48.681 110.33C48.3015 110.612 47.9448 111.004 47.5963 111.387C47.4577 111.539 47.3203 111.69 47.1901 111.824C46.6225 112.412 45.475 113.473 44.3869 114.332C42.0249 115.604 39.9873 113.201 38.4185 110.872C37.984 110.227 37.2153 109.041 36.605 107.867C35.3521 105.457 36.6679 102.766 39.3606 103.849C40.0374 106.004 44.028 111.68 45.9089 111.514V111.514L45.9207 111.513C47.4737 111.322 44.4645 110.324 45.4182 108.673C46.3901 106.991 45.9456 106.828 44.3546 107.62C43.2644 108.163 42.1469 106.231 41.7791 105.303C41.4185 104.393 38.4862 98.4901 39.1398 93.1174C43.4993 95.3147 46.7297 99.366 46.3627 104.567C46.3316 105.007 46.3019 105.428 46.3022 105.855C46.292 105.982 46.3494 106.11 46.461 106.182C46.619 106.283 46.8258 106.232 46.923 106.067C50.4934 100.025 43.9878 94.9718 40.046 91.9628C39.8698 91.8374 39.7036 91.719 39.5598 91.5129C39.2852 91.1194 39.3646 90.8372 39.4376 90.5777C39.544 90.1991 39.6424 89.849 39.3035 89.3765L39.3032 89.3767C39.2748 89.337 39.2378 89.3031 39.1932 89.2781C39.0302 89.1868 38.8269 89.2504 38.7392 89.4202C37.4302 91.9542 37.6483 97.976 38.4634 100.569C38.5647 100.891 38.6636 101.206 38.7459 101.623C37.6202 101.205 31.1811 103.142 32.248 97.6023C33.4114 91.5615 24.9498 96.5146 28.337 97.0342C31.6205 94.8261 30.0888 99.2575 31.3631 100.991C34.7005 105.531 34.8324 111.231 31.847 107.123C31.2592 105.94 30.1981 106.41 29.9976 105.086C29.9905 105.039 31.4939 97.5484 28.5439 97.5246C26.5268 97.5082 28.8936 99.5114 29.3169 100.839C29.5405 105.397 26.8179 101.109 24.3872 100.701C23.2654 100.512 23.1366 100.708 23.8337 101.46C47.6331 127.113 18.8286 110.396 9.04011 123.264C5.78029 127.55 6.57424 129.515 4.5629 134.539C2.80187 128.79 1.51763 116.273 2.14027 110.346C2.45731 107.327 4.70558 104.468 5.50551 100.992C5.78645 99.7712 6.06019 98.582 6.9277 97.0261C18.6394 76.0226 57.8044 77.9233 68.3508 99.7849L68.3505 99.7847ZM37.3611 111.98C38.6243 113.667 39.3612 114.709 37.8945 114.848C36.4277 114.987 35.0055 115.496 35.05 114.386C35.0659 113.988 34.6466 112.637 34.3861 111.74C33.291 107.97 36.0981 110.293 37.3611 111.98V111.98ZM64.0569 109.522C64.8582 109.649 65.4885 109.749 66.0722 109.574C65.6517 111.15 65.8337 113.063 66.0833 114.217C66.2955 115.198 67.2312 116.449 68.4098 116.179C68.8369 116.105 69.3144 112.148 69.3811 112.056C69.6917 111.629 70.3781 111.869 70.5662 111.358C70.8785 110.51 70.3442 109.321 70.2517 108.622C70.1985 108.219 70.1443 107.809 70.182 107.365C70.3863 103.605 71.7869 108.577 72.2576 109.838C73.449 117.18 72.0385 126.559 66.4459 132.19C65.5843 133.057 63.438 137.962 63.1434 139.594C62.7586 141.724 62.311 144.203 60.3549 145.909C56.0673 149.648 54.5052 148.284 50.236 149.873C49.2661 150.235 48.3222 150.636 47.3717 151.039C35.8507 155.933 8.94111 149.088 5.3542 136.678C5.25864 136.348 5.41379 135.584 5.66072 134.736C10.5788 117.83 19.0882 121.749 31.5833 118.772C32.5211 118.549 33.636 118.284 35.2865 118.082C36.3202 117.955 37.3659 117.817 38.4196 117.671C39.4802 117.523 40.4883 117.375 41.4612 117.228C49.7618 115.969 50.5922 106.797 64.0569 109.522V109.522ZM40.7547 127.214C40.4798 127.083 40.087 126.896 39.305 126.363C39.2732 125.223 39.4378 124.045 39.6073 122.831C39.6815 122.3 40.0893 119.876 39.6919 119.564C38.6282 118.728 38.3785 124.015 38.1105 125.956C37.7443 125.971 37.3306 125.846 37.0126 125.663C37.0052 124.015 37.0997 121.158 37.0127 119.639L37.012 119.639C37.0068 119.547 36.9661 119.456 36.892 119.392C36.75 119.269 36.539 119.289 36.4209 119.437C35.8174 120.193 35.6611 124.182 35.5774 125.438C32.9577 125.831 16.8046 122.308 17.1006 125.32C17.1554 125.878 17.9887 125.523 18.2818 125.424C19.6538 124.964 31.1063 127.008 35.6566 126.831C36.2381 127.879 35.5921 128.747 35.5431 129.862C35.4923 131.02 35.6761 132.942 36.2564 133.888C36.475 134.244 37.175 134.15 37.5842 134.157C37.6672 134.159 37.7504 134.151 37.8334 134.134L37.8332 134.133C37.9842 134.103 38.0999 133.966 38.1037 133.8C38.1152 133.341 37.0513 132.498 36.9567 131.851C36.8575 131.173 37.2299 127.34 37.2293 127.338C39.0993 127.463 36.8305 132.062 39.3964 133.298L39.3965 133.298C40.5713 133.41 39.1332 131.983 39.0361 130.674C38.5925 124.695 44.8691 133.022 45.2321 135.064C45.3191 135.664 45.4356 136.468 45.9152 137.864C46.1964 138.683 46.4184 140.825 46.5843 142.424C46.6668 143.221 46.7359 143.886 46.7946 144.213C46.9035 144.818 46.9161 144.996 46.956 145.564L46.972 145.79C47.008 146.293 47.0254 146.536 47.2006 146.734C47.3745 146.932 47.5771 146.956 47.9687 147.002L48.0818 147.016L48.0819 147.015C48.227 147.033 48.3713 146.949 48.4296 146.801C48.4655 146.711 48.495 146.623 48.5188 146.537C48.5493 146.57 48.5865 146.596 48.6292 146.615C48.7592 146.671 48.8705 146.728 48.9732 146.781C49.4015 147.001 49.71 147.159 50.3397 146.979C51.1579 146.821 50.3916 144.482 50.2272 144.02C50.1049 143.676 49.9851 143.34 49.9129 143.034C49.7429 142.314 49.7499 141.81 49.7564 141.342C49.8924 131.533 44.7454 134.059 49.2544 116.522L49.254 116.521C49.2806 116.418 49.261 116.303 49.1915 116.213C49.0755 116.063 48.8646 116.039 48.7203 116.159C46.6346 117.911 46.713 122.503 46.0418 125.619C45.3936 130.646 45.6685 131.396 40.7545 127.214L40.7547 127.214ZM18.8807 145.357C18.6477 144.954 18.3974 144.521 18.3347 143.92C18.2914 143.505 18.2677 143.105 18.2445 142.714C18.1977 141.925 18.1531 141.171 17.9585 140.378C17.5531 138.724 17.2018 138.01 16.9153 137.427C14.3988 132.305 18.4494 135.204 18.5463 128.629C18.7474 124.764 16.8158 126.94 17.1351 128.244C17.2577 136.122 11.8838 131.593 16.1351 139.878C16.2882 140.177 16.4321 140.457 16.5447 140.712C17.0566 141.87 16.5472 142.841 16.6564 144.14C17.1709 150.26 19.8525 147.039 18.8808 145.357L18.8807 145.357Z" fill="#B79069"/>
<path fill-rule="evenodd" clip-rule="evenodd" d="M107.528 108.533C106.797 108.2 105.615 106.958 104.845 106.38C103.976 105.726 102.742 104.631 101.279 104.725C99.3406 106.941 100.17 112.465 100.212 115.881C100.238 118.073 100.04 126.137 101.237 127.314C102.876 127.196 102.436 125.389 102.508 123.645C102.706 118.806 102.349 110.142 102.558 107.621C103.66 108.141 106.928 111.029 107.54 112.238C108.07 113.283 107.571 113.707 108.267 114.701C109.662 114.681 109.295 114.107 109.489 112.955C109.692 111.749 110.063 111.577 110.889 110.809C112.035 109.743 113.258 108.267 114.648 107.632C114.936 111.171 113.639 125.593 115.424 127.332C116.495 127.217 116.522 126.952 116.595 125.77L116.815 116.147C116.861 114.015 117.204 108.865 117.014 107.06C116.661 103.689 114.962 104.435 112.503 106.266C111.754 106.824 110.276 108.288 109.698 108.498C109.42 104.383 110.192 102.007 108.191 102C107.343 103.602 107.649 106.456 107.528 108.533V108.533Z" fill="#B79069"/>
<path fill-rule="evenodd" clip-rule="evenodd" d="M223.213 123.207C223.349 126.511 221.414 129.224 218.216 129.273C215.199 129.318 209.928 126.578 209.603 129.8C210.784 131.241 214.958 132.02 217.379 131.88C220.45 131.703 222.509 130.081 223.619 127.975C224.969 125.412 225.165 122.27 224.896 119.097L223.725 112.772C223.41 111.552 223.514 111.467 222.434 111.301C222.055 112.454 224.823 123.129 220.397 122.785C217.652 122.571 216.975 117.61 217.674 114.514C217.812 113.906 217.955 113.614 218.107 113.055C218.195 112.732 218.289 112.483 218.263 112.137L217.947 111.222C216.837 111.531 217.718 110.814 216.988 111.972C215.519 114.298 214.808 119.273 215.793 122.321C217.394 127.278 220.717 127.26 223.213 123.207L223.213 123.207Z" fill="#B79069"/>
<path fill-rule="evenodd" clip-rule="evenodd" d="M138.206 126.772C142.188 126.251 135.474 120.509 141.544 118.709C147.258 117.014 144.491 123.096 144.764 126.588C145.372 127.405 146.124 127.621 146.614 128.336C147.556 129.713 146.424 130.053 147.814 130.583C149.736 128.67 146.942 126.656 146.94 126.653C145.806 125.233 147.473 120.951 147.218 115.601C147.115 113.439 147.057 111.326 145.405 111.245C144.092 112.755 145.893 114.301 144.915 115.93C143.823 116.542 140.678 116.861 139.493 116.437C138.641 114.194 140.116 112.985 139.315 111.288C137.884 111.475 137.748 112.694 137.506 114.107C137.017 116.959 136.861 124.83 138.206 126.772V126.772Z" fill="#B79069"/>
<path fill-rule="evenodd" clip-rule="evenodd" d="M153.167 127.434C154.361 126.361 153.808 122.104 153.981 120.16C155.969 120.115 157.411 120.473 157.108 118.06C155.268 117.575 155.179 118.59 154.321 117.642C152.321 115.261 157.589 110.268 159.235 114.624C159.507 115.345 159.649 116.302 160.29 116.591C162.313 117.504 162.128 112.868 158.764 111.373C151.623 108.198 151.837 118.071 152.1 122.306C152.159 123.243 152.226 124.181 152.287 125.117C152.379 126.527 152.139 127.017 153.167 127.434L153.167 127.434Z" fill="#B79069"/>
<path fill-rule="evenodd" clip-rule="evenodd" d="M131.543 122.336C131.543 122.336 131.543 122.336 131.543 122.336H131.543C131.543 122.336 131.543 122.336 131.543 122.336ZM132.032 124.297C131.953 123.708 131.864 123.047 131.543 122.336C131.291 124.824 130.778 126.143 128.953 127.026C126.813 128.062 125.094 127.063 124.043 125.728C121.804 122.881 121.673 118.292 123.335 114.693C127.737 105.164 135.969 122.174 133.091 126.396C132.249 125.912 132.152 125.187 132.032 124.297ZM124.026 120.97C123.882 118.348 124.465 115.673 126.184 114.806C129.827 112.968 132.317 123.327 128.067 124.784C125.257 125.748 124.16 123.402 124.026 120.97Z" fill="#B79069"/>
<path fill-rule="evenodd" clip-rule="evenodd" d="M210.877 125.614L210.05 122.118L210.05 122.118C209.908 124.588 209.33 126.071 207.614 126.95C202.762 129.436 198.752 121.598 201.843 114.77C205.87 105.875 213.513 119.224 211.856 126.433C211.313 126.276 211.234 126.412 211.2 126.401C211.169 126.391 211.178 126.252 210.877 125.614ZM204.801 114.723C201.606 116.238 201.393 126.858 206.733 124.742C210.936 123.076 208.175 113.124 204.801 114.723Z" fill="#B79069"/>
<path fill-rule="evenodd" clip-rule="evenodd" d="M190.98 113.173C191 115.78 190.709 124.185 191.052 126.818C191.208 128.009 191.068 127.713 192.067 127.91C193.096 125.788 192.471 116.286 192.453 113.128C195.454 113.621 196.048 115.119 197.103 115.036C199.707 114.833 194.334 110.849 191.707 110.724C189.415 110.614 187.069 112.86 186.383 114.342C185.958 115.261 186.289 116.34 187.981 114.833C188.764 114.136 189.657 113.433 190.98 113.173H190.98Z" fill="#B79069"/>
<path fill-rule="evenodd" clip-rule="evenodd" d="M184.265 127.709C184.451 124.751 178.534 123.891 180.403 118.484C181.763 114.552 184.213 113.407 184.404 112.542C185.063 109.554 177.044 114.939 178.18 120.846C178.719 123.647 181.691 128.548 184.265 127.709H184.265Z" fill="#B79069"/>
<path fill-rule="evenodd" clip-rule="evenodd" d="M173.792 127.085C175.038 127.038 174.963 126.645 175.384 123.947C175.796 121.312 176.179 111.392 173.592 111.175C172.873 112.284 173.732 116.973 173.765 118.824C173.8 120.747 173.263 125.869 173.792 127.085H173.792Z" fill="#B79069"/>
<path fill-rule="evenodd" clip-rule="evenodd" d="M166.863 114.385C166.731 115.095 166.6 115.8 166.604 116.416C167.287 117.104 168.194 117.664 169.102 118.224C170.605 119.152 172.111 120.081 172.616 121.601C173.778 125.093 170.867 127.971 167.651 127.643C164.54 127.326 164.374 122.624 164.477 119.623C164.536 117.9 164.763 116.223 165.108 114.673C165.165 114.415 165.217 114.164 165.267 113.922C165.6 112.32 165.844 111.142 166.933 111.229C167.298 112.05 167.079 113.225 166.863 114.385ZM170.448 124.587C168.427 127.185 165.668 123.737 166.432 118.446H166.432C167.035 118.649 169.37 120.409 169.752 120.715C170.805 121.56 171.618 123.085 170.448 124.587Z" fill="#B79069"/>
<path fill-rule="evenodd" clip-rule="evenodd" d="M203.619 107.607C202.685 107.921 201.861 108.093 201.501 108.846C201.137 109.609 201.299 110.758 202.344 110.668C203.939 110.531 203.215 108.467 206.968 110.266C212.505 112.92 207.598 106.267 203.619 107.606V107.607Z" fill="#B79069"/>
<path fill-rule="evenodd" clip-rule="evenodd" d="M131.407 110.703C131.718 108.269 125.064 105.872 123.576 108.835C123.184 109.616 123.277 110.797 124.429 110.661C125.39 110.547 125.361 109.757 126.483 109.572C128.322 109.269 129.21 111.121 131.407 110.703H131.407Z" fill="#B79069"/>
<path fill-rule="evenodd" clip-rule="evenodd" d="M68.3505 179.785C68.5766 180.253 68.8057 180.728 69.1086 181.141C69.1791 181.241 69.2986 181.298 69.4248 181.28C69.6082 181.254 69.7363 181.077 69.7109 180.887C66.5754 160.117 12.7904 146.994 3.5535 180.31C1.62928 187.25 -0.23854 186.864 0.0249435 195.309C0.0427947 195.881 0.0602564 196.439 0.0669425 196.957C0.324648 216.801 3.83523 229.003 24.2895 233.303C30.6602 234.642 41.9906 236.422 48.2904 233.119C49.9733 232.237 51.5733 231.829 53.3925 231.399C55.1442 230.986 56.8603 230.581 58.5415 229.616C59.6004 229.008 60.5865 228.338 61.4568 227.6C62.2664 226.913 62.9748 226.17 63.5474 225.365C64.9275 223.427 65.5304 220.911 65.6696 219.366C67.9882 214.149 77.3567 203.354 74.4441 189.385C73.7348 185.983 69.1387 178.407 68.862 187.685C68.7898 190.108 68.6418 189.282 67.76 191.378C67.749 190.643 69.0342 180.348 67.4661 183.542C65.8313 186.859 65.2882 187.182 64.0639 187.126C61.4921 187.009 57.8863 183.484 48.681 190.33C48.3015 190.612 47.9448 191.004 47.5963 191.387C47.4577 191.539 47.3203 191.69 47.1901 191.824C46.6225 192.412 45.475 193.473 44.3869 194.332C42.0249 195.604 39.9873 193.201 38.4185 190.872C37.984 190.227 37.2153 189.041 36.605 187.867C35.3521 185.457 36.6679 182.766 39.3606 183.849C40.0374 186.004 44.028 191.68 45.9089 191.514V191.514L45.9207 191.513C47.4737 191.322 44.4645 190.324 45.4182 188.673C46.3901 186.991 45.9456 186.828 44.3546 187.62C43.2644 188.163 42.1469 186.231 41.7791 185.303C41.4185 184.393 38.4862 178.49 39.1398 173.117C43.4993 175.315 46.7297 179.366 46.3627 184.567C46.3316 185.007 46.3019 185.428 46.3022 185.855C46.292 185.982 46.3494 186.11 46.461 186.182C46.619 186.283 46.8258 186.232 46.923 186.067C50.4934 180.025 43.9878 174.972 40.046 171.963C39.8698 171.837 39.7036 171.719 39.5598 171.513C39.2852 171.119 39.3646 170.837 39.4376 170.578C39.544 170.199 39.6424 169.849 39.3035 169.376L39.3032 169.377C39.2748 169.337 39.2378 169.303 39.1932 169.278C39.0302 169.187 38.8269 169.25 38.7392 169.42C37.4302 171.954 37.6483 177.976 38.4634 180.569C38.5647 180.891 38.6636 181.206 38.7459 181.623C37.6202 181.205 31.1811 183.142 32.248 177.602C33.4114 171.562 24.9498 176.515 28.337 177.034C31.6205 174.826 30.0888 179.258 31.3631 180.991C34.7005 185.531 34.8324 191.231 31.847 187.123C31.2592 185.94 30.1981 186.41 29.9976 185.086C29.9905 185.039 31.4939 177.548 28.5439 177.525C26.5268 177.508 28.8936 179.511 29.3169 180.839C29.5405 185.397 26.8179 181.109 24.3872 180.701C23.2654 180.512 23.1366 180.708 23.8337 181.46C47.6331 207.113 18.8286 190.396 9.04011 203.264C5.78029 207.55 6.57424 209.515 4.5629 214.539C2.80187 208.79 1.51763 196.273 2.14027 190.346C2.45731 187.327 4.70558 184.468 5.50551 180.992C5.78645 179.771 6.06019 178.582 6.9277 177.026C18.6394 156.023 57.8044 157.923 68.3508 179.785L68.3505 179.785ZM37.3611 191.98C38.6243 193.667 39.3612 194.709 37.8945 194.848C36.4277 194.987 35.0055 195.496 35.05 194.386C35.0659 193.988 34.6466 192.637 34.3861 191.74C33.291 187.97 36.0981 190.293 37.3611 191.98V191.98ZM64.0569 189.522C64.8582 189.649 65.4885 189.749 66.0722 189.574C65.6517 191.15 65.8337 193.063 66.0833 194.217C66.2955 195.198 67.2312 196.449 68.4098 196.179C68.8369 196.105 69.3144 192.148 69.3811 192.056C69.6917 191.629 70.3781 191.869 70.5662 191.358C70.8785 190.51 70.3442 189.321 70.2517 188.622C70.1985 188.219 70.1443 187.809 70.182 187.365C70.3863 183.605 71.7869 188.577 72.2576 189.838C73.449 197.18 72.0385 206.559 66.4459 212.19C65.5843 213.057 63.438 217.962 63.1434 219.594C62.7586 221.724 62.311 224.203 60.3549 225.909C56.0673 229.648 54.5052 228.284 50.236 229.873C49.2661 230.235 48.3222 230.636 47.3717 231.039C35.8507 235.933 8.94111 229.088 5.3542 216.678C5.25864 216.348 5.41379 215.584 5.66072 214.736C10.5788 197.83 19.0882 201.749 31.5833 198.772C32.5211 198.549 33.636 198.284 35.2865 198.082C36.3202 197.955 37.3659 197.817 38.4196 197.671C39.4802 197.523 40.4883 197.375 41.4612 197.228C49.7618 195.969 50.5922 186.797 64.0569 189.522V189.522ZM40.7547 207.214C40.4798 207.083 40.087 206.896 39.305 206.363C39.2732 205.223 39.4378 204.045 39.6073 202.831C39.6815 202.3 40.0893 199.876 39.6919 199.564C38.6282 198.728 38.3785 204.015 38.1105 205.956C37.7443 205.971 37.3306 205.846 37.0126 205.663C37.0052 204.015 37.0997 201.158 37.0127 199.639L37.012 199.639C37.0068 199.547 36.9661 199.456 36.892 199.392C36.75 199.269 36.539 199.289 36.4209 199.437C35.8174 200.193 35.6611 204.182 35.5774 205.438C32.9577 205.831 16.8046 202.308 17.1006 205.32C17.1554 205.878 17.9887 205.523 18.2818 205.424C19.6538 204.964 31.1063 207.008 35.6566 206.831C36.2381 207.879 35.5921 208.747 35.5431 209.862C35.4923 211.02 35.6761 212.942 36.2564 213.888C36.475 214.244 37.175 214.15 37.5842 214.157C37.6672 214.159 37.7504 214.151 37.8334 214.134L37.8332 214.133C37.9842 214.103 38.0999 213.966 38.1037 213.8C38.1152 213.341 37.0513 212.498 36.9567 211.851C36.8575 211.173 37.2299 207.34 37.2293 207.338C39.0993 207.463 36.8305 212.062 39.3964 213.298L39.3965 213.298C40.5713 213.41 39.1332 211.983 39.0361 210.674C38.5925 204.695 44.8691 213.022 45.2321 215.064C45.3191 215.664 45.4356 216.468 45.9152 217.864C46.1964 218.683 46.4184 220.825 46.5843 222.424C46.6668 223.221 46.7359 223.886 46.7946 224.213C46.9035 224.818 46.9161 224.996 46.956 225.564L46.972 225.79C47.008 226.293 47.0254 226.536 47.2006 226.734C47.3745 226.932 47.5771 226.956 47.9687 227.002L48.0818 227.016L48.0819 227.015C48.227 227.033 48.3713 226.949 48.4296 226.801C48.4655 226.711 48.495 226.623 48.5188 226.537C48.5493 226.57 48.5865 226.596 48.6292 226.615C48.7592 226.671 48.8705 226.728 48.9732 226.781C49.4015 227.001 49.71 227.159 50.3397 226.979C51.1579 226.821 50.3916 224.482 50.2272 224.02C50.1049 223.676 49.9851 223.34 49.9129 223.034C49.7429 222.314 49.7499 221.81 49.7564 221.342C49.8924 211.533 44.7454 214.059 49.2544 196.522L49.254 196.521C49.2806 196.418 49.261 196.303 49.1915 196.213C49.0755 196.063 48.8646 196.039 48.7203 196.159C46.6346 197.911 46.713 202.503 46.0418 205.619C45.3936 210.646 45.6685 211.396 40.7545 207.214L40.7547 207.214ZM18.8807 225.357C18.6477 224.954 18.3974 224.521 18.3347 223.92C18.2914 223.505 18.2677 223.105 18.2445 222.714C18.1977 221.925 18.1531 221.171 17.9585 220.378C17.5531 218.724 17.2018 218.01 16.9153 217.427C14.3988 212.305 18.4494 215.204 18.5463 208.629C18.7474 204.764 16.8158 206.94 17.1351 208.244C17.2577 216.122 11.8838 211.593 16.1351 219.878C16.2882 220.177 16.4321 220.457 16.5447 220.712C17.0566 221.87 16.5472 222.841 16.6564 224.14C17.1709 230.26 19.8525 227.039 18.8808 225.357L18.8807 225.357Z" fill="black"/>
<path fill-rule="evenodd" clip-rule="evenodd" d="M107.528 188.533C106.797 188.2 105.615 186.958 104.845 186.38C103.976 185.726 102.742 184.631 101.279 184.725C99.3406 186.941 100.17 192.465 100.212 195.881C100.238 198.073 100.04 206.137 101.237 207.314C102.876 207.196 102.436 205.389 102.508 203.645C102.706 198.806 102.349 190.142 102.558 187.621C103.66 188.141 106.928 191.029 107.54 192.238C108.07 193.283 107.571 193.707 108.267 194.701C109.662 194.681 109.295 194.107 109.489 192.955C109.692 191.749 110.063 191.577 110.889 190.809C112.035 189.743 113.258 188.267 114.648 187.632C114.936 191.171 113.639 205.593 115.424 207.332C116.495 207.217 116.522 206.952 116.595 205.77L116.815 196.147C116.861 194.015 117.204 188.865 117.014 187.06C116.661 183.689 114.962 184.435 112.503 186.266C111.754 186.824 110.276 188.288 109.698 188.498C109.42 184.383 110.192 182.007 108.191 182C107.343 183.602 107.649 186.456 107.528 188.533V188.533Z" fill="black"/>
<path fill-rule="evenodd" clip-rule="evenodd" d="M223.213 203.207C223.349 206.511 221.414 209.224 218.216 209.273C215.199 209.318 209.928 206.578 209.603 209.8C210.784 211.241 214.958 212.02 217.379 211.88C220.45 211.703 222.509 210.081 223.619 207.975C224.969 205.412 225.165 202.27 224.896 199.097L223.725 192.772C223.41 191.552 223.514 191.467 222.434 191.301C222.055 192.454 224.823 203.129 220.397 202.785C217.652 202.571 216.975 197.61 217.674 194.514C217.812 193.906 217.955 193.614 218.107 193.055C218.195 192.732 218.289 192.483 218.263 192.137L217.947 191.222C216.837 191.531 217.718 190.814 216.988 191.972C215.519 194.298 214.808 199.273 215.793 202.321C217.394 207.278 220.717 207.26 223.213 203.207L223.213 203.207Z" fill="black"/>
<path fill-rule="evenodd" clip-rule="evenodd" d="M138.206 206.772C142.188 206.251 135.474 200.509 141.544 198.709C147.258 197.014 144.491 203.096 144.764 206.588C145.372 207.405 146.124 207.621 146.614 208.336C147.556 209.713 146.424 210.053 147.814 210.583C149.736 208.67 146.942 206.656 146.94 206.653C145.806 205.233 147.473 200.951 147.218 195.601C147.115 193.439 147.057 191.326 145.405 191.245C144.092 192.755 145.893 194.301 144.915 195.93C143.823 196.542 140.678 196.861 139.493 196.437C138.641 194.194 140.116 192.985 139.315 191.288C137.884 191.475 137.748 192.694 137.506 194.107C137.017 196.959 136.861 204.83 138.206 206.772V206.772Z" fill="black"/>
<path fill-rule="evenodd" clip-rule="evenodd" d="M153.167 207.434C154.361 206.361 153.808 202.104 153.981 200.16C155.969 200.115 157.411 200.473 157.108 198.06C155.268 197.575 155.179 198.59 154.321 197.642C152.321 195.261 157.589 190.268 159.235 194.624C159.507 195.345 159.649 196.302 160.29 196.591C162.313 197.504 162.128 192.868 158.764 191.373C151.623 188.198 151.837 198.071 152.1 202.306C152.159 203.243 152.226 204.181 152.287 205.117C152.379 206.527 152.139 207.017 153.167 207.434L153.167 207.434Z" fill="black"/>
<path fill-rule="evenodd" clip-rule="evenodd" d="M131.543 202.336C131.543 202.336 131.543 202.336 131.543 202.336H131.543C131.543 202.336 131.543 202.336 131.543 202.336ZM132.032 204.297C131.953 203.708 131.864 203.047 131.543 202.336C131.291 204.824 130.778 206.143 128.953 207.026C126.813 208.062 125.094 207.063 124.043 205.728C121.804 202.881 121.673 198.292 123.335 194.693C127.737 185.164 135.969 202.174 133.091 206.396C132.249 205.912 132.152 205.187 132.032 204.297ZM124.026 200.97C123.882 198.348 124.465 195.673 126.184 194.806C129.827 192.968 132.317 203.327 128.067 204.784C125.257 205.748 124.16 203.402 124.026 200.97Z" fill="black"/>
<path fill-rule="evenodd" clip-rule="evenodd" d="M210.877 205.614L210.05 202.118L210.05 202.118C209.908 204.588 209.33 206.071 207.614 206.95C202.762 209.436 198.752 201.598 201.843 194.77C205.87 185.875 213.513 199.224 211.856 206.433C211.313 206.276 211.234 206.412 211.2 206.401C211.169 206.391 211.178 206.252 210.877 205.614ZM204.801 194.723C201.606 196.238 201.393 206.858 206.733 204.742C210.936 203.076 208.175 193.124 204.801 194.723Z" fill="black"/>
<path fill-rule="evenodd" clip-rule="evenodd" d="M190.98 193.173C191 195.78 190.709 204.185 191.052 206.818C191.208 208.009 191.068 207.713 192.067 207.91C193.096 205.788 192.471 196.286 192.453 193.128C195.454 193.621 196.048 195.119 197.103 195.036C199.707 194.833 194.334 190.849 191.707 190.724C189.415 190.614 187.069 192.86 186.383 194.342C185.958 195.261 186.289 196.34 187.981 194.833C188.764 194.136 189.657 193.433 190.98 193.173H190.98Z" fill="black"/>
<path fill-rule="evenodd" clip-rule="evenodd" d="M184.265 207.709C184.451 204.751 178.534 203.891 180.403 198.484C181.763 194.552 184.213 193.407 184.404 192.542C185.063 189.554 177.044 194.939 178.18 200.846C178.719 203.647 181.691 208.548 184.265 207.709H184.265Z" fill="black"/>
<path fill-rule="evenodd" clip-rule="evenodd" d="M173.792 207.085C175.038 207.038 174.963 206.645 175.384 203.947C175.796 201.312 176.179 191.392 173.592 191.175C172.873 192.284 173.732 196.973 173.765 198.824C173.8 200.747 173.263 205.869 173.792 207.085H173.792Z" fill="black"/>
<path fill-rule="evenodd" clip-rule="evenodd" d="M166.863 194.385C166.731 195.095 166.6 195.8 166.604 196.416C167.287 197.104 168.194 197.664 169.102 198.224C170.605 199.152 172.111 200.081 172.616 201.601C173.778 205.093 170.867 207.971 167.651 207.643C164.54 207.326 164.374 202.624 164.477 199.623C164.536 197.9 164.763 196.223 165.108 194.673C165.165 194.415 165.217 194.164 165.267 193.922C165.6 192.32 165.844 191.142 166.933 191.229C167.298 192.05 167.079 193.225 166.863 194.385ZM170.448 204.587C168.427 207.185 165.668 203.737 166.432 198.446H166.432C167.035 198.649 169.37 200.409 169.752 200.715C170.805 201.56 171.618 203.085 170.448 204.587Z" fill="black"/>
<path fill-rule="evenodd" clip-rule="evenodd" d="M203.619 187.607C202.685 187.921 201.861 188.093 201.501 188.846C201.137 189.609 201.299 190.758 202.344 190.668C203.939 190.531 203.215 188.467 206.968 190.266C212.505 192.92 207.598 186.267 203.619 187.606V187.607Z" fill="black"/>
<path fill-rule="evenodd" clip-rule="evenodd" d="M131.407 190.703C131.718 188.269 125.064 185.872 123.576 188.835C123.184 189.616 123.277 190.797 124.429 190.661C125.39 190.547 125.361 189.757 126.483 189.572C128.322 189.269 129.21 191.121 131.407 190.703H131.407Z" fill="black"/>
</svg>
